<svg width="196" height="20" viewBox="0 0 196 20" fill="none" xmlns="http://www.w3.org/2000/svg">
<path d="M8.87305 11.4062C8.87305 11.0742 8.82096 10.7812 8.7168 10.5273C8.61914 10.2669 8.44336 10.0326 8.18945 9.82422C7.94206 9.61589 7.59701 9.41732 7.1543 9.22852C6.7181 9.03971 6.16471 8.84766 5.49414 8.65234C4.79102 8.44401 4.15625 8.21289 3.58984 7.95898C3.02344 7.69857 2.53841 7.40234 2.13477 7.07031C1.73112 6.73828 1.42188 6.35742 1.20703 5.92773C0.992188 5.49805 0.884766 5.00651 0.884766 4.45312C0.884766 3.89974 0.998698 3.38867 1.22656 2.91992C1.45443 2.45117 1.77995 2.04427 2.20312 1.69922C2.63281 1.34766 3.14388 1.07422 3.73633 0.878906C4.32878 0.683594 4.98958 0.585938 5.71875 0.585938C6.78646 0.585938 7.69141 0.791016 8.43359 1.20117C9.18229 1.60482 9.75195 2.13542 10.1426 2.79297C10.5332 3.44401 10.7285 4.14062 10.7285 4.88281H8.85352C8.85352 4.34896 8.73958 3.87695 8.51172 3.4668C8.28385 3.05013 7.9388 2.72461 7.47656 2.49023C7.01432 2.24935 6.42839 2.12891 5.71875 2.12891C5.04818 2.12891 4.49479 2.22982 4.05859 2.43164C3.6224 2.63346 3.29688 2.9069 3.08203 3.25195C2.8737 3.59701 2.76953 3.99089 2.76953 4.43359C2.76953 4.73307 2.83138 5.00651 2.95508 5.25391C3.08529 5.49479 3.28385 5.7194 3.55078 5.92773C3.82422 6.13607 4.16927 6.32812 4.58594 6.50391C5.00911 6.67969 5.51367 6.84896 6.09961 7.01172C6.9069 7.23958 7.60352 7.49349 8.18945 7.77344C8.77539 8.05339 9.25716 8.36914 9.63477 8.7207C10.0189 9.06576 10.3021 9.45964 10.4844 9.90234C10.6732 10.3385 10.7676 10.8333 10.7676 11.3867C10.7676 11.9661 10.6504 12.4902 10.416 12.959C10.1816 13.4277 9.84635 13.8281 9.41016 14.1602C8.97396 14.4922 8.44987 14.7493 7.83789 14.9316C7.23242 15.1074 6.55534 15.1953 5.80664 15.1953C5.14909 15.1953 4.5013 15.1042 3.86328 14.9219C3.23177 14.7396 2.6556 14.4661 2.13477 14.1016C1.62044 13.737 1.20703 13.2878 0.894531 12.7539C0.588542 12.2135 0.435547 11.5885 0.435547 10.8789H2.31055C2.31055 11.3672 2.40495 11.7871 2.59375 12.1387C2.78255 12.4837 3.03971 12.7702 3.36523 12.998C3.69727 13.2259 4.07161 13.3952 4.48828 13.5059C4.91146 13.61 5.35091 13.6621 5.80664 13.6621C6.46419 13.6621 7.02083 13.571 7.47656 13.3887C7.93229 13.2064 8.27734 12.946 8.51172 12.6074C8.7526 12.2689 8.87305 11.8685 8.87305 11.4062ZM15.8594 4.43359V15H14.043V4.43359H15.8594ZM13.9062 1.63086C13.9062 1.33789 13.9941 1.09049 14.1699 0.888672C14.3522 0.686849 14.6191 0.585938 14.9707 0.585938C15.3158 0.585938 15.5794 0.686849 15.7617 0.888672C15.9505 1.09049 16.0449 1.33789 16.0449 1.63086C16.0449 1.91081 15.9505 2.15169 15.7617 2.35352C15.5794 2.54883 15.3158 2.64648 14.9707 2.64648C14.6191 2.64648 14.3522 2.54883 14.1699 2.35352C13.9941 2.15169 13.9062 1.91081 13.9062 1.63086ZM26.6055 4.43359H28.2461V14.7754C28.2461 15.7064 28.0573 16.5007 27.6797 17.1582C27.3021 17.8158 26.7747 18.3138 26.0977 18.6523C25.4271 18.9974 24.6523 19.1699 23.7734 19.1699C23.4089 19.1699 22.9792 19.1113 22.4844 18.9941C21.9961 18.8835 21.5143 18.6914 21.0391 18.418C20.5703 18.151 20.1764 17.7897 19.8574 17.334L20.8047 16.2598C21.2474 16.7936 21.7096 17.1647 22.1914 17.373C22.6797 17.5814 23.1615 17.6855 23.6367 17.6855C24.2096 17.6855 24.7044 17.5781 25.1211 17.3633C25.5378 17.1484 25.86 16.8294 26.0879 16.4062C26.3223 15.9896 26.4395 15.4753 26.4395 14.8633V6.75781L26.6055 4.43359ZM19.3301 9.83398V9.62891C19.3301 8.82161 19.4245 8.08919 19.6133 7.43164C19.8086 6.76758 20.0853 6.19792 20.4434 5.72266C20.8079 5.2474 21.2474 4.88281 21.7617 4.62891C22.276 4.36849 22.8555 4.23828 23.5 4.23828C24.1641 4.23828 24.7435 4.35547 25.2383 4.58984C25.7396 4.81771 26.1628 5.15299 26.5078 5.5957C26.8594 6.0319 27.1361 6.55924 27.3379 7.17773C27.5397 7.79622 27.6797 8.49609 27.7578 9.27734V10.1758C27.6862 10.9505 27.5462 11.6471 27.3379 12.2656C27.1361 12.8841 26.8594 13.4115 26.5078 13.8477C26.1628 14.2839 25.7396 14.6191 25.2383 14.8535C24.737 15.0814 24.151 15.1953 23.4805 15.1953C22.849 15.1953 22.276 15.0618 21.7617 14.7949C21.2539 14.528 20.8177 14.1536 20.4531 13.6719C20.0885 13.1901 19.8086 12.6237 19.6133 11.9727C19.4245 11.3151 19.3301 10.6022 19.3301 9.83398ZM21.1367 9.62891V9.83398C21.1367 10.3613 21.1888 10.8561 21.293 11.3184C21.4036 11.7806 21.5697 12.1875 21.791 12.5391C22.0189 12.8906 22.3086 13.1673 22.6602 13.3691C23.0117 13.5645 23.4316 13.6621 23.9199 13.6621C24.5189 13.6621 25.0137 13.5352 25.4043 13.2812C25.7949 13.0273 26.1042 12.6921 26.332 12.2754C26.5664 11.8587 26.7487 11.4062 26.8789 10.918V8.56445C26.8073 8.20638 26.6966 7.86133 26.5469 7.5293C26.4036 7.19076 26.2148 6.89128 25.9805 6.63086C25.7526 6.36393 25.4694 6.15234 25.1309 5.99609C24.7923 5.83984 24.3952 5.76172 23.9395 5.76172C23.4447 5.76172 23.0182 5.86589 22.6602 6.07422C22.3086 6.27604 22.0189 6.55599 21.791 6.91406C21.5697 7.26562 21.4036 7.67578 21.293 8.14453C21.1888 8.60677 21.1367 9.10156 21.1367 9.62891ZM33.7969 6.68945V15H31.9902V4.43359H33.6992L33.7969 6.68945ZM33.3672 9.31641L32.6152 9.28711C32.6217 8.56445 32.7292 7.89714 32.9375 7.28516C33.1458 6.66667 33.4388 6.12956 33.8164 5.67383C34.194 5.2181 34.6432 4.86654 35.1641 4.61914C35.6914 4.36523 36.2741 4.23828 36.9121 4.23828C37.4329 4.23828 37.9017 4.3099 38.3184 4.45312C38.735 4.58984 39.0898 4.8112 39.3828 5.11719C39.6823 5.42318 39.9102 5.82031 40.0664 6.30859C40.2227 6.79036 40.3008 7.37956 40.3008 8.07617V15H38.4844V8.05664C38.4844 7.50326 38.403 7.06055 38.2402 6.72852C38.0775 6.38997 37.8398 6.14583 37.5273 5.99609C37.2148 5.83984 36.8307 5.76172 36.375 5.76172C35.9258 5.76172 35.5156 5.85612 35.1445 6.04492C34.7799 6.23372 34.4642 6.49414 34.1973 6.82617C33.9368 7.1582 33.7318 7.53906 33.582 7.96875C33.4388 8.39193 33.3672 8.84115 33.3672 9.31641ZM58.4141 0.78125H60.2891V10.4004C60.2891 11.4681 60.0514 12.3568 59.5762 13.0664C59.1009 13.776 58.4694 14.3099 57.6816 14.668C56.9004 15.0195 56.0508 15.1953 55.1328 15.1953C54.1693 15.1953 53.2969 15.0195 52.5156 14.668C51.7409 14.3099 51.1257 13.776 50.6699 13.0664C50.2207 12.3568 49.9961 11.4681 49.9961 10.4004V0.78125H51.8613V10.4004C51.8613 11.1426 51.998 11.7546 52.2715 12.2363C52.5449 12.7181 52.9258 13.0762 53.4141 13.3105C53.9089 13.5449 54.4818 13.6621 55.1328 13.6621C55.7904 13.6621 56.3633 13.5449 56.8516 13.3105C57.3464 13.0762 57.7305 12.7181 58.0039 12.2363C58.2773 11.7546 58.4141 11.1426 58.4141 10.4004V0.78125ZM65.7812 6.46484V19.0625H63.9648V4.43359H65.625L65.7812 6.46484ZM72.9004 9.62891V9.83398C72.9004 10.6022 72.8092 11.3151 72.627 11.9727C72.4447 12.6237 72.1777 13.1901 71.8262 13.6719C71.4811 14.1536 71.0547 14.528 70.5469 14.7949C70.0391 15.0618 69.4564 15.1953 68.7988 15.1953C68.1283 15.1953 67.5358 15.0846 67.0215 14.8633C66.5072 14.6419 66.071 14.3197 65.7129 13.8965C65.3548 13.4733 65.0684 12.9655 64.8535 12.373C64.6452 11.7806 64.502 11.1133 64.4238 10.3711V9.27734C64.502 8.49609 64.6484 7.79622 64.8633 7.17773C65.0781 6.55924 65.3613 6.0319 65.7129 5.5957C66.071 5.15299 66.5039 4.81771 67.0117 4.58984C67.5195 4.35547 68.1055 4.23828 68.7695 4.23828C69.4336 4.23828 70.0228 4.36849 70.5371 4.62891C71.0514 4.88281 71.4844 5.2474 71.8359 5.72266C72.1875 6.19792 72.4512 6.76758 72.627 7.43164C72.8092 8.08919 72.9004 8.82161 72.9004 9.62891ZM71.084 9.83398V9.62891C71.084 9.10156 71.0286 8.60677 70.918 8.14453C70.8073 7.67578 70.6348 7.26562 70.4004 6.91406C70.1725 6.55599 69.8796 6.27604 69.5215 6.07422C69.1634 5.86589 68.737 5.76172 68.2422 5.76172C67.7865 5.76172 67.3893 5.83984 67.0508 5.99609C66.7188 6.15234 66.4355 6.36393 66.2012 6.63086C65.9668 6.89128 65.7747 7.19076 65.625 7.5293C65.4818 7.86133 65.3743 8.20638 65.3027 8.56445V11.0938C65.4329 11.5495 65.6152 11.9792 65.8496 12.3828C66.084 12.7799 66.3965 13.1022 66.7871 13.3496C67.1777 13.5905 67.6693 13.7109 68.2617 13.7109C68.75 13.7109 69.1699 13.61 69.5215 13.4082C69.8796 13.1999 70.1725 12.9167 70.4004 12.5586C70.6348 12.2005 70.8073 11.7904 70.918 11.3281C71.0286 10.8594 71.084 10.3613 71.084 9.83398ZM84.8418 13.125L87.5566 4.43359H88.748L88.5137 6.16211L85.75 15H84.5879L84.8418 13.125ZM83.0156 4.43359L85.3301 13.2227L85.4961 15H84.2754L81.209 4.43359H83.0156ZM91.3457 13.1543L93.5527 4.43359H95.3496L92.2832 15H91.0723L91.3457 13.1543ZM89.0117 4.43359L91.668 12.9785L91.9707 15H90.8184L87.9766 6.14258L87.7422 4.43359H89.0117ZM100.168 4.43359V15H98.3516V4.43359H100.168ZM98.2148 1.63086C98.2148 1.33789 98.3027 1.09049 98.4785 0.888672C98.6608 0.686849 98.9277 0.585938 99.2793 0.585938C99.6243 0.585938 99.888 0.686849 100.07 0.888672C100.259 1.09049 100.354 1.33789 100.354 1.63086C100.354 1.91081 100.259 2.15169 100.07 2.35352C99.888 2.54883 99.6243 2.64648 99.2793 2.64648C98.9277 2.64648 98.6608 2.54883 98.4785 2.35352C98.3027 2.15169 98.2148 1.91081 98.2148 1.63086ZM108.492 4.43359V5.82031H102.779V4.43359H108.492ZM104.713 1.86523H106.52V12.3828C106.52 12.7409 106.575 13.0111 106.686 13.1934C106.796 13.3757 106.939 13.4961 107.115 13.5547C107.291 13.6133 107.48 13.6426 107.682 13.6426C107.831 13.6426 107.988 13.6296 108.15 13.6035C108.32 13.571 108.447 13.5449 108.531 13.5254L108.541 15C108.398 15.0456 108.209 15.0879 107.975 15.127C107.747 15.1725 107.47 15.1953 107.145 15.1953C106.702 15.1953 106.295 15.1074 105.924 14.9316C105.553 14.7559 105.257 14.4629 105.035 14.0527C104.82 13.6361 104.713 13.0762 104.713 12.373V1.86523ZM113.418 0V15H111.611V0H113.418ZM112.988 9.31641L112.236 9.28711C112.243 8.56445 112.35 7.89714 112.559 7.28516C112.767 6.66667 113.06 6.12956 113.438 5.67383C113.815 5.2181 114.264 4.86654 114.785 4.61914C115.312 4.36523 115.895 4.23828 116.533 4.23828C117.054 4.23828 117.523 4.3099 117.939 4.45312C118.356 4.58984 118.711 4.8112 119.004 5.11719C119.303 5.42318 119.531 5.82031 119.688 6.30859C119.844 6.79036 119.922 7.37956 119.922 8.07617V15H118.105V8.05664C118.105 7.50326 118.024 7.06055 117.861 6.72852C117.699 6.38997 117.461 6.14583 117.148 5.99609C116.836 5.83984 116.452 5.76172 115.996 5.76172C115.547 5.76172 115.137 5.85612 114.766 6.04492C114.401 6.23372 114.085 6.49414 113.818 6.82617C113.558 7.1582 113.353 7.53906 113.203 7.96875C113.06 8.39193 112.988 8.84115 112.988 9.31641ZM140.369 7.91992V13.125C140.193 13.3854 139.913 13.6784 139.529 14.0039C139.145 14.3229 138.615 14.6029 137.938 14.8438C137.267 15.0781 136.401 15.1953 135.34 15.1953C134.474 15.1953 133.676 15.0456 132.947 14.7461C132.225 14.4401 131.596 13.9974 131.062 13.418C130.535 12.832 130.125 12.1224 129.832 11.2891C129.546 10.4492 129.402 9.4987 129.402 8.4375V7.33398C129.402 6.27279 129.526 5.32552 129.773 4.49219C130.027 3.65885 130.398 2.95247 130.887 2.37305C131.375 1.78711 131.974 1.3444 132.684 1.04492C133.393 0.738932 134.207 0.585938 135.125 0.585938C136.212 0.585938 137.12 0.77474 137.85 1.15234C138.585 1.52344 139.158 2.03776 139.568 2.69531C139.985 3.35286 140.252 4.10156 140.369 4.94141H138.484C138.4 4.42708 138.23 3.95833 137.977 3.53516C137.729 3.11198 137.374 2.77344 136.912 2.51953C136.45 2.25911 135.854 2.12891 135.125 2.12891C134.467 2.12891 133.898 2.24935 133.416 2.49023C132.934 2.73112 132.537 3.07617 132.225 3.52539C131.912 3.97461 131.678 4.51823 131.521 5.15625C131.372 5.79427 131.297 6.51367 131.297 7.31445V8.4375C131.297 9.25781 131.391 9.99023 131.58 10.6348C131.775 11.2793 132.052 11.8294 132.41 12.2852C132.768 12.7344 133.195 13.0762 133.689 13.3105C134.191 13.5449 134.744 13.6621 135.35 13.6621C136.02 13.6621 136.564 13.6068 136.98 13.4961C137.397 13.3789 137.723 13.2422 137.957 13.0859C138.191 12.9232 138.37 12.7702 138.494 12.627V9.44336H135.203V7.91992H140.369ZM143.742 9.83398V9.60938C143.742 8.84766 143.853 8.14128 144.074 7.49023C144.296 6.83268 144.615 6.26302 145.031 5.78125C145.448 5.29297 145.952 4.91536 146.545 4.64844C147.137 4.375 147.801 4.23828 148.537 4.23828C149.279 4.23828 149.947 4.375 150.539 4.64844C151.138 4.91536 151.646 5.29297 152.062 5.78125C152.486 6.26302 152.808 6.83268 153.029 7.49023C153.251 8.14128 153.361 8.84766 153.361 9.60938V9.83398C153.361 10.5957 153.251 11.3021 153.029 11.9531C152.808 12.6042 152.486 13.1738 152.062 13.6621C151.646 14.1439 151.141 14.5215 150.549 14.7949C149.963 15.0618 149.299 15.1953 148.557 15.1953C147.814 15.1953 147.147 15.0618 146.555 14.7949C145.962 14.5215 145.454 14.1439 145.031 13.6621C144.615 13.1738 144.296 12.6042 144.074 11.9531C143.853 11.3021 143.742 10.5957 143.742 9.83398ZM145.549 9.60938V9.83398C145.549 10.3613 145.611 10.8594 145.734 11.3281C145.858 11.7904 146.044 12.2005 146.291 12.5586C146.545 12.9167 146.861 13.1999 147.238 13.4082C147.616 13.61 148.055 13.7109 148.557 13.7109C149.051 13.7109 149.484 13.61 149.855 13.4082C150.233 13.1999 150.546 12.9167 150.793 12.5586C151.04 12.2005 151.226 11.7904 151.35 11.3281C151.48 10.8594 151.545 10.3613 151.545 9.83398V9.60938C151.545 9.08854 151.48 8.59701 151.35 8.13477C151.226 7.66602 151.037 7.2526 150.783 6.89453C150.536 6.52995 150.223 6.24349 149.846 6.03516C149.475 5.82682 149.038 5.72266 148.537 5.72266C148.042 5.72266 147.606 5.82682 147.229 6.03516C146.857 6.24349 146.545 6.52995 146.291 6.89453C146.044 7.2526 145.858 7.66602 145.734 8.13477C145.611 8.59701 145.549 9.08854 145.549 9.60938ZM156.148 9.83398V9.60938C156.148 8.84766 156.259 8.14128 156.48 7.49023C156.702 6.83268 157.021 6.26302 157.438 5.78125C157.854 5.29297 158.359 4.91536 158.951 4.64844C159.544 4.375 160.208 4.23828 160.943 4.23828C161.686 4.23828 162.353 4.375 162.945 4.64844C163.544 4.91536 164.052 5.29297 164.469 5.78125C164.892 6.26302 165.214 6.83268 165.436 7.49023C165.657 8.14128 165.768 8.84766 165.768 9.60938V9.83398C165.768 10.5957 165.657 11.3021 165.436 11.9531C165.214 12.6042 164.892 13.1738 164.469 13.6621C164.052 14.1439 163.548 14.5215 162.955 14.7949C162.369 15.0618 161.705 15.1953 160.963 15.1953C160.221 15.1953 159.553 15.0618 158.961 14.7949C158.368 14.5215 157.861 14.1439 157.438 13.6621C157.021 13.1738 156.702 12.6042 156.48 11.9531C156.259 11.3021 156.148 10.5957 156.148 9.83398ZM157.955 9.60938V9.83398C157.955 10.3613 158.017 10.8594 158.141 11.3281C158.264 11.7904 158.45 12.2005 158.697 12.5586C158.951 12.9167 159.267 13.1999 159.645 13.4082C160.022 13.61 160.462 13.7109 160.963 13.7109C161.458 13.7109 161.891 13.61 162.262 13.4082C162.639 13.1999 162.952 12.9167 163.199 12.5586C163.447 12.2005 163.632 11.7904 163.756 11.3281C163.886 10.8594 163.951 10.3613 163.951 9.83398V9.60938C163.951 9.08854 163.886 8.59701 163.756 8.13477C163.632 7.66602 163.443 7.2526 163.189 6.89453C162.942 6.52995 162.63 6.24349 162.252 6.03516C161.881 5.82682 161.445 5.72266 160.943 5.72266C160.449 5.72266 160.012 5.82682 159.635 6.03516C159.264 6.24349 158.951 6.52995 158.697 6.89453C158.45 7.2526 158.264 7.66602 158.141 8.13477C158.017 8.59701 157.955 9.08854 157.955 9.60938ZM175.879 4.43359H177.52V14.7754C177.52 15.7064 177.331 16.5007 176.953 17.1582C176.576 17.8158 176.048 18.3138 175.371 18.6523C174.701 18.9974 173.926 19.1699 173.047 19.1699C172.682 19.1699 172.253 19.1113 171.758 18.9941C171.27 18.8835 170.788 18.6914 170.312 18.418C169.844 18.151 169.45 17.7897 169.131 17.334L170.078 16.2598C170.521 16.7936 170.983 17.1647 171.465 17.373C171.953 17.5814 172.435 17.6855 172.91 17.6855C173.483 17.6855 173.978 17.5781 174.395 17.3633C174.811 17.1484 175.133 16.8294 175.361 16.4062C175.596 15.9896 175.713 15.4753 175.713 14.8633V6.75781L175.879 4.43359ZM168.604 9.83398V9.62891C168.604 8.82161 168.698 8.08919 168.887 7.43164C169.082 6.76758 169.359 6.19792 169.717 5.72266C170.081 5.2474 170.521 4.88281 171.035 4.62891C171.549 4.36849 172.129 4.23828 172.773 4.23828C173.438 4.23828 174.017 4.35547 174.512 4.58984C175.013 4.81771 175.436 5.15299 175.781 5.5957C176.133 6.0319 176.41 6.55924 176.611 7.17773C176.813 7.79622 176.953 8.49609 177.031 9.27734V10.1758C176.96 10.9505 176.82 11.6471 176.611 12.2656C176.41 12.8841 176.133 13.4115 175.781 13.8477C175.436 14.2839 175.013 14.6191 174.512 14.8535C174.01 15.0814 173.424 15.1953 172.754 15.1953C172.122 15.1953 171.549 15.0618 171.035 14.7949C170.527 14.528 170.091 14.1536 169.727 13.6719C169.362 13.1901 169.082 12.6237 168.887 11.9727C168.698 11.3151 168.604 10.6022 168.604 9.83398ZM170.41 9.62891V9.83398C170.41 10.3613 170.462 10.8561 170.566 11.3184C170.677 11.7806 170.843 12.1875 171.064 12.5391C171.292 12.8906 171.582 13.1673 171.934 13.3691C172.285 13.5645 172.705 13.6621 173.193 13.6621C173.792 13.6621 174.287 13.5352 174.678 13.2812C175.068 13.0273 175.378 12.6921 175.605 12.2754C175.84 11.8587 176.022 11.4062 176.152 10.918V8.56445C176.081 8.20638 175.97 7.86133 175.82 7.5293C175.677 7.19076 175.488 6.89128 175.254 6.63086C175.026 6.36393 174.743 6.15234 174.404 5.99609C174.066 5.83984 173.669 5.76172 173.213 5.76172C172.718 5.76172 172.292 5.86589 171.934 6.07422C171.582 6.27604 171.292 6.55599 171.064 6.91406C170.843 7.26562 170.677 7.67578 170.566 8.14453C170.462 8.60677 170.41 9.10156 170.41 9.62891ZM183.227 0V15H181.41V0H183.227ZM191.512 15.1953C190.776 15.1953 190.109 15.0716 189.51 14.8242C188.917 14.5703 188.406 14.2155 187.977 13.7598C187.553 13.304 187.228 12.7637 187 12.1387C186.772 11.5137 186.658 10.8301 186.658 10.0879V9.67773C186.658 8.81836 186.785 8.05339 187.039 7.38281C187.293 6.70573 187.638 6.13281 188.074 5.66406C188.51 5.19531 189.005 4.84049 189.559 4.59961C190.112 4.35872 190.685 4.23828 191.277 4.23828C192.033 4.23828 192.684 4.36849 193.23 4.62891C193.784 4.88932 194.236 5.25391 194.588 5.72266C194.939 6.1849 195.2 6.73177 195.369 7.36328C195.538 7.98828 195.623 8.67188 195.623 9.41406V10.2246H187.732V8.75H193.816V8.61328C193.79 8.14453 193.693 7.6888 193.523 7.24609C193.361 6.80339 193.1 6.4388 192.742 6.15234C192.384 5.86589 191.896 5.72266 191.277 5.72266C190.867 5.72266 190.49 5.81055 190.145 5.98633C189.799 6.1556 189.503 6.40951 189.256 6.74805C189.008 7.08659 188.816 7.5 188.68 7.98828C188.543 8.47656 188.475 9.03971 188.475 9.67773V10.0879C188.475 10.5892 188.543 11.0612 188.68 11.5039C188.823 11.9401 189.028 12.3242 189.295 12.6562C189.568 12.9883 189.897 13.2487 190.281 13.4375C190.672 13.6263 191.115 13.7207 191.609 13.7207C192.247 13.7207 192.788 13.5905 193.23 13.3301C193.673 13.0697 194.061 12.7214 194.393 12.2852L195.486 13.1543C195.258 13.4993 194.969 13.8281 194.617 14.1406C194.266 14.4531 193.833 14.707 193.318 14.9023C192.811 15.0977 192.208 15.1953 191.512 15.1953Z" fill="white"/>
</svg>
